PathFileType	4	(x/y/z)	S08_M20_T01
DataRate	CameraRate	NumFrames	NumMarkers	Units	OrigDataRate	OrigDataStartFrame	OrigNumFrames
240	240	5	51	mm	240	127	504
Frame#	Time	Sternum			R.Acromium			L.Acromium			Top.Head			R.ASIS			L.ASIS			R.PSIS			L.PSIS			R.Great.Tro			L.Great.Tro			R.Iliac.Crest			L.Iliac.Crest			V.Sacral			R.Thigh.Upper.Post			R.Thigh.Lower.Ant			R.Thigh.Lower.Post			R.Thigh.Upper.Ant			R.Knee.Lat			R.Knee.Med			R.Shank.Upper.Post			R.Shank.Lower.Ant			R.Shank.Lower.Post			R.Shank.Upper.Ant			R.Ankle.Lat			R.Ankle.Med			R.Heel.Upper			R.Heel.Med			R.Heel.Lat			R.Toe.Lat			R.Toe.Med			R.Toe.Tip			L.Thigh.Upper.Post			L.Thigh.Lower.Ant			L.Thigh.Lower.Post			L.Thigh.Upper.Ant			L.Knee.Lat			L.Knee.Med			L.Shank.Upper.Post			L.Shank.Lower.Ant			L.Shank.Lower.Post			L.Shank.Upper.Ant			L.Ankle.Lat			L.Ankle.Med			L.Heel.Upper			L.Heel.Med			L.Heel.Lat			L.Toe.Lat			L.Toe.Med			L.Toe.Tip			Cervical.Spine			Back			
		X1	Y1	Z1	X2	Y2	Z2	X3	Y3	Z3	X4	Y4	Z4	X5	Y5	Z5	X6	Y6	Z6	X7	Y7	Z7	X8	Y8	Z8	X9	Y9	Z9	X10	Y10	Z10	X11	Y11	Z11	X12	Y12	Z12	X13	Y13	Z13	X14	Y14	Z14	X15	Y15	Z15	X16	Y16	Z16	X17	Y17	Z17	X18	Y18	Z18	X19	Y19	Z19	X20	Y20	Z20	X21	Y21	Z21	X22	Y22	Z22	X23	Y23	Z23	X24	Y24	Z24	X25	Y25	Z25	X26	Y26	Z26	X27	Y27	Z27	X28	Y28	Z28	X29	Y29	Z29	X30	Y30	Z30	X31	Y31	Z31	X32	Y32	Z32	X33	Y33	Z33	X34	Y34	Z34	X35	Y35	Z35	X36	Y36	Z36	X37	Y37	Z37	X38	Y38	Z38	X39	Y39	Z39	X40	Y40	Z40	X41	Y41	Z41	X42	Y42	Z42	X43	Y43	Z43	X44	Y44	Z44	X45	Y45	Z45	X46	Y46	Z46	X47	Y47	Z47	X48	Y48	Z48	X49	Y49	Z49	X50	Y50	Z50	X51	Y51	Z51	

127	0.525	-872.96	1222.8	278.94	-988.66	1460.3	452.13	-994.99	1490.5	119.59	-963.42	1779.4	299.1	-883.19	1015	388.88	-888.26	1015.7	155.6	-1088.6	1032.5	323.58	-1087.5	1039.7	231.04	-936.01	903.7	462.92	-991.6	912.79	94.575	-981.44	1079.1	440.76	-989.9	1095.6	131.48	-1104.5	995.72	276.17	-867.83	711.02	452.52	-756.12	655.67	415.67	-822.41	632.99	432.42	-796.55	740.69	434.38	-743.68	557.68	412.97	-774.9	544.65	288.81	-765.43	367.74	429.72	-693.9	317.94	406.58	-750.64	291.99	424.92	-708.68	394.75	414.74	-715.43	123.34	395.28	-691.13	145.85	316.05	-753.55	75.174	346.59	-731.07	53.192	319.05	-739.52	51.938	380.41	NaN	NaN	NaN	-555.86	111.27	310.95	-501.89	147.95	357.34	-1044	716.76	114.04	-976.33	613.22	143.02	-1042.5	626.84	133.67	-974.71	699.11	116.59	-1054.9	521.24	160.75	-1050.8	524.21	286.02	-1150.3	356.75	166.29	-1104.3	258.32	193.47	-1170.3	284.88	186.23	-1093.6	330.33	174.19	-1183.7	108.74	214.52	-1160.4	116.47	302.2	-1241.2	83.421	265.76	-1230.2	50.081	296.58	-1236.3	56.4	232.86	-1061.8	38.156	199.17	-1042.4	41.727	314.02	-977.15	53.183	264.5	-1056.8	1518.7	276.73	-1111.7	1236.4	286.06
128	0.52917	-867.88	1222	279.04	-983.48	1459.5	452.25	-989.58	1489.8	119.74	-958.26	1778.7	299.2	-878.02	1014.4	388.97	-883.39	1014.9	155.71	-1083.5	1031.8	323.73	-1082.4	1039.1	231.25	-930.86	903.06	463.06	-987.02	912.27	94.638	-976.25	1078.4	440.85	-984.89	1094.9	131.55	-1099.4	995.12	276.39	-862.96	710.16	452.71	-751.4	654.7	415.49	-817.66	632.1	432.48	-791.66	739.76	434.43	-738.81	556.92	412.72	-770.4	543.67	288.66	-757.22	366.65	429.36	-684.8	318.26	405.88	-741.01	291.2	424.38	-701.03	394.76	414.22	-702.31	123.18	394.27	-678.77	146.33	314.97	-739.66	74.355	345.63	-716.72	52.787	317.95	-724.9	51.247	379.36	NaN	NaN	NaN	-542.83	114.61	309.3	-489.44	152.42	355.56	-1040.8	716.57	114.16	-973.39	612.76	142.96	-1039.5	626.78	133.56	-971.32	698.66	116.54	-1052.6	521.19	160.66	-1048.3	524.07	285.94	-1148.9	357.24	166.18	-1103.4	258.51	193.26	-1169.5	285.3	186.28	-1092.4	330.43	174.06	-1183.2	109.19	214.47	-1160	116.84	302.04	-1241	83.866	265.61	-1230.1	50.612	296.54	-1236.3	56.804	232.83	-1061.7	38.084	199.14	-1042.4	41.815	313.96	-977.08	53.106	264.45	-1051.6	1518.1	276.74	-1106.4	1235.7	286.11
129	0.53333	-862.77	1221.3	279.16	-978.28	1458.8	452.37	-984.16	1489.2	119.89	-953.1	1778	299.31	-872.83	1013.7	389.06	-878.5	1014.1	155.82	-1078.3	1031.2	323.89	-1077.3	1038.4	231.47	-925.66	902.42	463.19	-982.43	911.74	94.705	-971.03	1077.8	440.95	-979.86	1094.2	131.62	-1094.4	994.51	276.62	-858.07	709.29	452.91	-746.68	653.68	415.32	-812.93	631.18	432.55	-786.76	738.8	434.48	-734	556.1	412.48	-765.97	542.63	288.52	-749.16	365.58	429	-675.88	318.57	405.19	-731.55	290.44	423.83	-693.52	394.74	413.71	-689.42	123.11	393.23	-666.63	146.89	313.88	-726	73.659	344.62	-702.6	52.506	316.81	-710.55	50.678	378.25	NaN	NaN	NaN	-530.06	117.98	307.7	-477.29	156.85	353.88	-1037.6	716.37	114.3	-970.41	612.31	142.89	-1036.4	626.71	133.46	-967.9	698.2	116.49	-1050.2	521.13	160.57	-1045.8	523.93	285.87	-1147.3	357.75	166.07	-1102.4	258.72	193.04	-1168.6	285.75	186.33	-1091.2	330.53	173.94	-1182.8	109.65	214.41	-1159.6	117.23	301.85	-1240.9	84.336	265.45	-1230	51.176	296.5	-1236.2	57.239	232.79	-1061.7	38.009	199.1	-1042.3	41.912	313.89	-977	53.032	264.4	-1046.4	1517.4	276.77	-1101.1	1235	286.17
130	0.5375	-857.64	1220.5	279.28	-973.07	1458.1	452.5	-978.74	1488.5	120.05	-947.92	1777.2	299.44	-867.59	1013	389.14	-873.58	1013.4	155.93	-1073.2	1030.5	324.07	-1072.2	1037.8	231.7	-920.4	901.77	463.31	-977.82	911.21	94.776	-965.77	1077.1	441.05	-974.82	1093.5	131.7	-1089.2	993.9	276.86	-853.18	708.41	453.11	-741.98	652.6	415.17	-808.22	630.23	432.64	-781.83	737.8	434.54	-729.23	555.23	412.26	-761.57	541.56	288.38	-741.24	364.51	428.61	-667.14	318.87	404.5	-722.28	289.71	423.25	-686.15	394.7	413.23	-676.8	123.1	392.15	-654.7	147.5	312.77	-712.57	73.076	343.54	-688.73	52.34	315.61	-696.48	50.22	377.09	NaN	NaN	NaN	-517.57	121.34	306.16	-465.46	161.23	352.28	-1034.3	716.18	114.45	-967.4	611.85	142.8	-1033.3	626.63	133.39	-964.46	697.74	116.43	-1047.8	521.08	160.49	-1043.2	523.77	285.79	-1145.8	358.27	165.95	-1101.4	258.94	192.82	-1167.6	286.24	186.38	-1090	330.64	173.81	-1182.5	110.14	214.34	-1159.2	117.64	301.65	-1240.7	84.831	265.26	-1229.9	51.775	296.45	-1236.1	57.705	232.74	-1061.7	37.931	199.06	-1042.2	42.017	313.83	-976.92	52.959	264.35	-1041.1	1516.7	276.82	-1095.9	1234.3	286.25
131	0.54167	-852.49	1219.8	279.41	-967.83	1457.3	452.64	-973.31	1487.8	120.22	-942.74	1776.5	299.58	-862.32	1012.3	389.21	-868.65	1012.6	156.03	-1068	1029.8	324.26	-1067.1	1037.1	231.94	-915.08	901.12	463.44	-973.2	910.68	94.853	-960.47	1076.5	441.15	-969.75	1092.7	131.78	-1084.1	993.27	277.11	-848.26	707.51	453.31	-737.27	651.48	415.03	-803.51	629.25	432.73	-776.89	736.76	434.6	-724.51	554.31	412.06	-757.21	540.44	288.26	-733.46	363.44	428.19	-658.59	319.16	403.83	-713.19	288.99	422.65	-678.92	394.64	412.76	-664.45	123.16	391.05	-643.02	148.17	311.66	-699.4	72.598	342.41	-675.14	52.279	314.36	-682.72	49.865	375.87	NaN	NaN	NaN	-505.37	124.69	304.67	-453.95	165.54	350.78	-1030.9	715.98	114.61	-964.34	611.4	142.7	-1030.2	626.54	133.34	-960.99	697.28	116.36	-1045.3	521.02	160.4	-1040.5	523.6	285.72	-1144.2	358.82	165.84	-1100.4	259.16	192.6	-1166.6	286.75	186.43	-1088.7	330.76	173.69	-1182.1	110.64	214.27	-1158.8	118.07	301.42	-1240.5	85.355	265.05	-1229.7	52.411	296.39	-1236	58.207	232.68	-1061.6	37.85	199.02	-1042.2	42.13	313.76	-976.83	52.885	264.3	-1035.9	1516	276.89	-1090.6	1233.6	286.33
